<?xml version="1.0" encoding="UTF-8" standalone="no"?>
<svg
   height="24"
   viewBox="0 0 24 24"
   width="24"
   version="1.1"
   id="svg837"
   sodipodi:docname="favicon.svg"
   inkscape:version="1.1 (c68e22c387, 2021-05-23)"
   xmlns:inkscape="http://www.inkscape.org/namespaces/inkscape"
   xmlns:sodipodi="http://sodipodi.sourceforge.net/DTD/sodipodi-0.dtd"
   xmlns="http://www.w3.org/2000/svg"
   xmlns:svg="http://www.w3.org/2000/svg">
  <defs
     id="defs841" />
  <sodipodi:namedview
     id="namedview839"
     pagecolor="#ffffff"
     bordercolor="#666666"
     borderopacity="1.0"
     inkscape:pageshadow="2"
     inkscape:pageopacity="0.0"
     inkscape:pagecheckerboard="0"
     showgrid="false"
     inkscape:zoom="19.327585"
     inkscape:cx="15.909903"
     inkscape:cy="8.6146303"
     inkscape:window-width="1920"
     inkscape:window-height="1080"
     inkscape:window-x="0"
     inkscape:window-y="0"
     inkscape:window-maximized="1"
     inkscape:current-layer="svg837" />
  <path
     d="M 137,299.36792 C 121.02748,297.85831 101.0285,292.3651 86.089668,285.38415 70.648183,278.1683 57.914702,269.05573 44.429486,255.57051 21.767252,232.90828 8.5277084,207.71115 2.3573445,175.5 c -2.36340288,-12.33767 -2.36340288,-38.66233 0,-51 C 4.537145,113.12079 9.7497775,96 11.034518,96 11.571482,96 25.395883,106.8939 41.755409,120.20866 84.335226,154.86371 86,156.23798 86,156.73258 c 0,0.2458 -2.229198,2.94801 -4.953774,6.00492 -13.781529,15.46253 -19.195764,37.628 -14.078497,57.63632 5.435761,21.25362 18.467975,39.23915 34.214141,47.21834 11.75296,5.95568 29.64654,6.90422 46.81813,2.48184 7.38836,-1.90281 53.86029,-21.81289 56.42739,-24.17533 0.55771,-0.51324 -0.49607,-4.1512 -2.64345,-9.12606 C 199.81997,232.22267 185.83753,199.925 170.71184,165 155.58616,130.075 141.17912,96.775 138.6962,91 136.21328,85.225 133.0159,77.899669 131.5909,74.721487 130.16591,71.543304 129,68.35119 129,67.6279 c 0,-1.599543 19.19456,-10.811262 27.48038,-13.188189 18.96387,-5.44011 35.26687,1.884195 45.76466,20.560289 7.70549,13.708469 8.35128,29.25253 1.77066,42.61968 -3.91998,7.96261 -14.98269,18.55285 -24.71379,23.65831 l -7.1981,3.77651 4.1981,3.79869 c 2.30895,2.08927 24.67309,21.48974 49.69809,43.11215 25.025,21.62241 46.13965,39.90646 46.92144,40.63122 3.36797,3.12228 -21.87811,29.89567 -38.97175,41.32942 -17.24677,11.53618 -37.52303,19.78208 -57.90104,23.54705 -8.59072,1.5872 -30.86685,2.66818 -39.04865,1.89489 z m -12.19894,-51.37585 c -19.80392,-3.42081 -36.676292,-29.73687 -32.908874,-51.32838 2.644196,-15.15419 13.130394,-28.34826 28.615644,-36.00512 7.50643,-3.71164 7.69752,-3.89378 5.87547,-5.60039 C 125.34749,154.08799 112.575,143.00273 98,130.42427 77.357877,112.60978 30.478461,72.130911 25.711842,68.005774 22.843312,65.523284 51.248965,35.9624 65.935954,26.145787 91.921619,8.7772673 118.75611,0.63330576 150,0.63330576 c 41.3847,0 76.22999,14.45565224 105.57051,43.79618024 22.66224,22.662233 35.90178,47.85936 42.07215,80.070514 2.3634,12.33767 2.3634,38.66233 0,51 -1.7725,9.25296 -7.26464,28.42002 -8.52268,29.74334 -0.54966,0.57819 -39.02149,-30.02486 -71.54324,-56.91026 l -3.83084,-3.16691 4.37705,-5.07414 C 236.38473,118.92187 239.92233,92.961388 228.0304,67.386637 223.36428,57.351674 220.45023,53.01062 213.7418,46.10095 195.25265,27.057144 169.08814,22.81686 142.10267,34.490937 c -15.38825,6.65705 -45.629647,20.649872 -46.504342,21.517756 -0.534496,0.530334 0.221153,3.459433 1.855646,7.192979 C 98.970499,66.665752 110.91453,94.25 123.99626,124.5 c 13.08174,30.25 29.20503,67.4977 35.82954,82.77266 l 12.04455,27.77265 -9.68517,4.53587 c -16.55507,7.75325 -27.25489,10.16056 -37.38412,8.41089 z"
     fill="#ffffff"
     transform="matrix(0.07692556,0,0,0.07692556,0.45501452,0.4512826)"
     id="path829"
     style="stroke-width:0.695652;fill:#ac1d36;fill-opacity:1" />
</svg>
