<?xml version="1.0" standalone="no"?>
<!DOCTYPE svg PUBLIC "-//W3C//DTD SVG 20010904//EN"
 "http://www.w3.org/TR/2001/REC-SVG-20010904/DTD/svg10.dtd">
<svg version="1.0" xmlns="http://www.w3.org/2000/svg"
 width="700.000000pt" height="700.000000pt" viewBox="0 0 700.000000 700.000000"
 preserveAspectRatio="xMidYMid meet">
<metadata>
Created by potrace 1.14, written by Peter Selinger 2001-2017
</metadata>
<g transform="translate(0.000000,700.000000) scale(0.100000,-0.100000)"
fill="#000000" stroke="none">
<path d="M3417 6854 c-1 -1 -58 -4 -127 -8 -132 -6 -200 -12 -265 -22 -22 -3
-51 -7 -65 -9 -14 -2 -38 -6 -55 -9 -219 -40 -377 -82 -595 -161 -229 -83
-575 -270 -775 -420 -322 -241 -854 -802 -828 -872 2 -7 48 -50 101 -95 53
-46 99 -85 102 -89 3 -3 34 -30 70 -60 36 -29 67 -56 70 -59 3 -4 104 -91 225
-195 121 -104 222 -191 225 -195 3 -3 52 -46 110 -96 58 -49 119 -101 135
-116 17 -14 55 -47 85 -73 30 -26 69 -59 85 -74 17 -14 127 -109 245 -211 225
-194 266 -228 284 -245 6 -6 79 -69 161 -140 249 -215 374 -325 381 -337 9
-15 -27 -44 -101 -80 -342 -167 -566 -407 -660 -706 -109 -343 8 -755 294
-1043 173 -173 353 -250 573 -244 216 6 411 69 820 263 l76 37 -80 185 c-44
102 -122 282 -173 400 -175 407 -326 755 -340 785 -41 93 -60 136 -128 295
-81 190 -298 691 -327 755 -10 22 -37 85 -60 140 -23 55 -50 118 -60 140 -10
22 -41 94 -70 160 -68 157 -74 172 -97 225 -11 25 -33 74 -48 110 -15 36 -36
84 -47 108 -18 41 -93 216 -195 452 -57 132 -90 221 -87 238 1 6 2 16 3 20 0
5 49 32 109 60 273 129 364 172 367 172 3 0 110 49 252 116 40 19 75 34 77 34
3 0 39 16 80 35 343 158 535 209 801 210 251 0 425 -40 624 -146 176 -94 350
-244 474 -410 70 -94 84 -118 156 -264 147 -300 203 -571 177 -857 -3 -43 -8
-83 -11 -90 -2 -7 -6 -26 -9 -43 -11 -64 -18 -93 -47 -179 -60 -181 -164 -357
-313 -531 l-86 -100 38 -34 c20 -18 120 -101 222 -185 102 -83 194 -159 205
-168 11 -9 110 -89 220 -178 110 -89 209 -169 220 -178 11 -9 63 -51 115 -92
52 -41 97 -77 100 -80 3 -3 25 -21 50 -40 25 -19 47 -37 50 -40 3 -3 21 -17
42 -32 20 -15 42 -33 50 -40 7 -7 40 -33 73 -58 33 -25 66 -51 75 -57 8 -7 62
-49 120 -93 l105 -80 22 48 c21 44 118 366 128 424 3 15 10 40 16 55 6 15 10
29 9 31 -1 1 1 15 4 30 19 87 34 188 44 297 9 106 9 628 -1 730 -14 142 -13
141 -83 455 -21 97 -128 405 -184 531 -97 217 -251 479 -377 639 -128 164
-344 397 -477 515 -118 105 -276 227 -401 311 -158 106 -422 244 -580 303 -33
13 -69 27 -80 31 -127 55 -511 145 -699 166 -23 2 -56 7 -73 9 -69 10 -458 26
-466 19z"/>
<path d="M3848 5685 c-2 -2 -31 -6 -66 -9 -76 -8 -192 -43 -337 -104 -137 -57
-350 -164 -390 -196 l-30 -24 19 -54 c10 -29 86 -208 168 -398 145 -333 261
-601 598 -1380 87 -201 217 -502 290 -670 73 -168 152 -352 177 -410 25 -58
53 -123 63 -145 10 -22 88 -204 175 -405 86 -201 163 -379 170 -395 22 -50 39
-121 32 -138 -8 -21 -193 -109 -587 -279 -450 -195 -694 -283 -835 -303 -22
-3 -58 -8 -80 -12 -61 -9 -100 -12 -231 -13 -376 -3 -630 93 -870 327 -110
108 -139 142 -219 263 -114 172 -199 360 -250 552 -104 391 -46 791 164 1132
41 66 82 120 201 264 45 54 51 64 39 78 -7 9 -160 136 -339 282 -310 253 -596
487 -631 516 -283 233 -684 546 -699 546 -13 0 -23 -22 -63 -140 -79 -239
-134 -469 -152 -650 -13 -119 -15 -174 -15 -410 -1 -352 8 -457 57 -675 13
-60 26 -118 28 -127 40 -184 158 -505 261 -710 44 -87 171 -308 183 -318 4 -3
15 -18 25 -35 140 -221 476 -584 721 -778 33 -26 69 -55 79 -64 99 -82 358
-239 521 -317 322 -154 756 -283 1075 -321 30 -4 69 -9 85 -12 37 -6 416 -5
505 2 191 14 294 24 335 31 111 18 157 27 210 41 33 8 70 17 83 19 135 25 517
171 717 274 172 89 387 222 469 290 11 10 62 52 111 93 199 166 382 348 530
528 54 66 107 152 112 182 5 31 1 37 -86 111 -50 42 -97 83 -103 89 -7 7 -65
56 -128 111 -138 118 -229 197 -244 211 -6 6 -58 51 -116 100 -58 50 -121 104
-140 121 -59 52 -191 167 -280 243 -47 40 -98 85 -115 99 -34 30 -240 209
-325 282 -124 107 -238 206 -295 255 -33 29 -85 74 -115 100 -178 155 -304
267 -307 274 -2 3 50 35 115 70 147 79 269 169 383 282 146 145 213 249 262
404 35 111 38 133 43 275 8 248 -67 469 -235 695 -106 142 -225 234 -396 305
-29 13 -85 27 -130 35 -43 8 -191 15 -197 10z"/>
</g>
</svg>
