<svg height="64" viewBox="0 0 64 64" width="64" xmlns="http://www.w3.org/2000/svg"><g fill="none" stroke="#cc1e46" stroke-linecap="round" stroke-linejoin="round"><path d="m42.762 29.35c2.548-7.483.83-16.093-5.123-22.074-8.396-8.368-21.967-8.368-30.362 0-8.37 8.395-8.37 21.967 0 30.362 6.947 6.92 17.407 8.127 25.56 3.594m9.925-11.882 19.928 19.928v13.411h-10.729m-16.093-21.457h-3.03m3.03 0v5.364m5.364 0h-5.364m5.364 0v5.364m5.365 0h-5.364m5.364 0v5.364m5.364.001h-5.364m5.364 5.364v-5.364"/><path d="m22.458 17.092c0 2.963-2.402 5.364-5.364 5.364-2.963 0-5.365-2.4-5.365-5.364 0-2.963 2.402-5.364 5.365-5.364 2.962 0 5.364 2.401 5.364 5.364z"/></g></svg>