<svg xmlns="http://www.w3.org/2000/svg" width="42" height="42" viewBox="0 0 42 42">
    <g fill="none" fill-rule="evenodd">
        <g fill="#FFF">
            <path d="M1403 418c0 11.597-9.403 21-21 21s-21-9.403-21-21 9.403-21 21-21 21 9.403 21 21m-20.068-5.124c-2.06.854-6.177 2.622-12.35 5.303-1.003.397-1.529.786-1.576 1.166-.082.644.727.897 1.824 1.24.15.048.306.095.465.148 1.081.35 2.536.76 3.291.776.687.014 1.453-.267 2.298-.844 5.767-3.883 8.745-5.845 8.932-5.887.132-.03.316-.068.44.042.123.11.11.317.098.373-.081.34-3.247 3.276-4.889 4.796-.511.473-.873.81-.947.887-.166.17-.336.334-.498.49-1.006.964-1.758 1.69.042 2.871.865.569 1.557 1.038 2.246 1.506.755.512 1.506 1.022 2.48 1.66.248.161.484.328.715.492.878.624 1.666 1.184 2.64 1.096.565-.053 1.151-.582 1.448-2.164.7-3.74 2.08-11.84 2.4-15.178.02-.278.008-.556-.035-.83-.026-.223-.134-.427-.304-.573-.252-.205-.644-.25-.82-.246-.797.014-2.018.438-7.9 2.876" transform="translate(-1361.000000, -397.000000)"/>
        </g>
    </g>
</svg>
