<svg xmlns="http://www.w3.org/2000/svg" xmlns:xlink="http://www.w3.org/1999/xlink" width="40" height="46" viewBox="0 0 40 46">
    <defs>
        <path id="ieqaetedka" d="M0 0L40 0 40 45.714 0 45.714z"/>
    </defs>
    <g fill="none" fill-rule="evenodd">
        <g>
            <g transform="translate(-1362.000000, -555.000000) translate(1362.000000, 555.000000)">
                <mask id="xi6mg9miab" fill="#fff">
                    <use xlink:href="#ieqaetedka"/>
                </mask>
                <path fill="#FFF" d="M35.314 0H4.686C2.102 0 0 2.103 0 4.709V35.61c0 2.606 2.102 4.709 4.686 4.709h25.92l-1.212-4.229 2.926 2.72 2.766 2.56L40 45.714V4.71C40 2.103 37.897 0 35.314 0m-8.823 29.851S25.67 28.87 24.983 28c2.994-.846 4.137-2.72 4.137-2.72-.937.617-1.829 1.051-2.629 1.349-1.142.48-2.24.8-3.314.982-1.957.361-3.965.353-5.92-.022-1.148-.225-2.272-.554-3.36-.983-.573-.22-1.131-.48-1.668-.777-.069-.046-.138-.069-.207-.115-.045-.023-.068-.045-.09-.068-.413-.229-.64-.389-.64-.389s1.097 1.829 4 2.697c-.686.869-1.532 1.897-1.532 1.897-5.051-.16-6.971-3.474-6.971-3.474 0-7.36 3.291-13.326 3.291-13.326 3.29-2.468 6.423-2.4 6.423-2.4l.228.275c-4.114 1.188-6.011 2.994-6.011 2.994s.503-.274 1.349-.663c2.445-1.074 4.388-1.371 5.188-1.44.137-.023.252-.046.389-.046 3.964-.536 7.995.218 11.497 2.149 0 0-1.806-1.714-5.692-2.903l.32-.366s3.132-.068 6.423 2.4c0 0 3.292 5.966 3.292 13.326 0 0-1.943 3.314-6.995 3.474" mask="url(#xi6mg9miab)"/>
            </g>
        </g>
    </g>
</svg>
