<svg xmlns="http://www.w3.org/2000/svg" xmlns:xlink="http://www.w3.org/1999/xlink" width="42" height="42" viewBox="0 0 42 42">
    <defs>
        <path id="fzdx14a4ka" d="M0 0L42 0 42 42 0 42z"/>
    </defs>
    <g fill="none" fill-rule="evenodd">
        <g>
            <g transform="translate(-1361.000000, -476.000000) translate(1361.000000, 476.000000)">
                <mask id="l9nadykexb" fill="#fff">
                    <use xlink:href="#fzdx14a4ka"/>
                </mask>
                <path fill="#FFF" d="M24.507 20.635l-4.913-2.292c-.43-.2-.782.024-.782.498v4.319c0 .474.353.697.782.498l4.91-2.292c.431-.202.431-.53.003-.731M21 0C9.402 0 0 9.402 0 21s9.402 21 21 21 21-9.402 21-21S32.598 0 21 0m0 29.531c-10.75 0-10.938-.969-10.938-8.53 0-7.563.189-8.532 10.938-8.532 10.75 0 10.938.969 10.938 8.531S31.748 29.531 21 29.531" mask="url(#l9nadykexb)"/>
            </g>
        </g>
    </g>
</svg>
