<svg height="46" viewBox="0 0 40 46" width="40" xmlns="http://www.w3.org/2000/svg"><path d="m4.6855469 0c-2.584 0-4.6855469 2.1029844-4.6855469 4.7089844v30.9003906c0 2.606 2.1015469 4.708984 4.6855469 4.708984h25.9199221l-1.210938-4.228515 2.925781 2.720703 2.765626 2.558594 4.914062 4.345703v-41.0039065c0-2.607-2.102547-4.7109375-4.685547-4.7109375zm11.8183591 10.650391.226563.27539c-4.114 1.188-6.009766 2.994141-6.009766 2.994141s.501656-.27311 1.347656-.66211c2.445-1.073999 4.389454-1.372406 5.189453-1.441406.137001-.023.251672-.044922.388672-.044922 3.964-.536 7.994094.217438 11.496094 2.148438 0 0-1.805406-1.713344-5.691406-2.902344l.320312-.367187s3.130875-.06761 6.421875 2.40039c0 0 3.292969 5.966172 3.292969 13.326172 0 0-1.944094 3.314609-6.996094 3.474609 0 0-.820812-.981562-1.507812-1.851562 2.994-.846 4.136719-2.720703 4.136719-2.720703-.937.617-1.828907 1.051609-2.628907 1.349609-1.142.48-2.2385.800422-3.3125.982422-1.957.361-3.964921.353516-5.919922-.021484-1.147999-.225-2.273328-.555375-3.361328-.984375-.573-.22-1.130968-.480344-1.667968-.777344-.069-.046-.138032-.067281-.207032-.113281-.045-.023-.067843-.04536-.089843-.06836-.413-.229-.638672-.388671-.638672-.388672 0 0 1.097 1.827313 4 2.695313-.686.869-1.533203 1.898437-1.533203 1.898437-5.0510004-.16-6.9707035-3.474609-6.9707035-3.474609 0-7.36 3.2910155-13.326172 3.2910155-13.326172 3.29-2.468 6.423828-2.40039 6.423828-2.40039z" fill="#fff" fill-rule="evenodd"/></svg>