<svg height="42" viewBox="0 0 42 42" width="42" xmlns="http://www.w3.org/2000/svg"><g fill="#fff" fill-rule="evenodd"><path d="m21 0c-11.598 0-21 9.402-21 21s9.402 21 21 21 21-9.402 21-21-9.402-21-21-21zm0 12.46875c10.75 0 10.9375.96925 10.9375 8.53125s-.1895 8.53125-10.9375 8.53125c-10.75 0-10.9375-.968297-10.9375-8.529297 0-7.563.1885-8.533203 10.9375-8.533203z"/><path d="m24.507 20.635-4.913-2.292c-.43-.2-.782.024-.782.498v4.319c0 .474.353.697.782.498l4.91-2.292c.431-.202.431-.53.003-.731"/></g></svg>