<svg xmlns="http://www.w3.org/2000/svg" width="42" height="42" viewBox="0 0 42 42">
    <g fill="none" fill-rule="evenodd">
        <g fill="#FFF">
            <path d="M1380 239c-11.602 0-21 9.635-21 21.531 0 9.528 6.011 17.575 14.359 20.428 1.05.188 1.444-.458 1.444-1.023 0-.511-.027-2.207-.027-4.01-5.276.996-6.641-1.319-7.061-2.53-.236-.619-1.26-2.53-2.152-3.041-.736-.404-1.786-1.4-.027-1.427 1.654-.027 2.835 1.561 3.229 2.207 1.89 3.257 4.909 2.342 6.116 1.777.184-1.4.735-2.342 1.339-2.88-4.673-.538-9.555-2.396-9.555-10.631 0-2.342.814-4.28 2.153-5.787-.21-.538-.946-2.745.21-5.705 0 0 1.758-.566 5.774 2.206 1.68-.484 3.466-.726 5.25-.726 1.786 0 3.57.242 5.25.726 4.017-2.799 5.776-2.206 5.776-2.206 1.155 2.96.42 5.167.21 5.705 1.338 1.507 2.152 3.418 2.152 5.787 0 8.262-4.909 10.093-9.581 10.63.761.674 1.417 1.966 1.417 3.984 0 2.88-.026 5.194-.026 5.921 0 .565.394 1.238 1.444 1.023 4.169-1.443 7.791-4.19 10.357-7.855 2.567-3.664 3.948-8.061 3.949-12.573 0-11.896-9.398-21.531-21-21.531" transform="translate(-1359.000000, -239.000000)"/>
        </g>
    </g>
</svg>
