<svg height="25" viewBox="0 0 25 25" width="25" xmlns="http://www.w3.org/2000/svg"><path d="m21.011719-.97070312-7.091797 4.89062502h.0098c-.531938 0-1.02203.2140581-1.373047.5683593-.349931.3484391-.570313.8323962-.570313 1.3652344v15.4394534c0 .529559.219678 1.013283.572086 1.365727s.838618.567861 1.371315.56786h18.982421c.537515 0 1.023432-.219639 1.373047-.568359.353869-.349389.570313-.833825.570313-1.365234v-3.59375h.25c.270191 0 .496094-.22289.496093-.494141v-6.623047c0-.27034-.22253-.49414-.496093-.49414h-.25v-4.2343694c0-.5306827-.214498-1.0155531-.56836-1.3652344-.354254-.3530611-.842172-.5683593-1.375-.5683593h-.449293l-1.142575-3.47460932c-.10827-.29404003-.319672-.53087682-.589843-.6640625-.26733-.13350654-.588856-.17341532-.898438-.078125l-5.605473 1.82421872-1.519531-2.1914063c-.191835-.27213868-.475051-.4460771-.781917-.5021742-.306866-.056097-.637389.00207-.913395.19553358zm.864019.84433444c.000653.001309 1.36845 1.97402458 1.36845 1.97402458l-6.578125 2.0722657h-1.001954l5.935785-4.09516453c.02368-.0170396.08975-.0285627.147552-.0178753.05781.0106875.113359.0438967.128292.0667495zm8.408432.79134975c.05053.0257506.09164.0718797.110349.12994068l1.027353 3.12500015h-9.88281-1.451171l10.047518-3.27755102c.03189-.009973.09823-.00314.148761.0226102zm-16.354482 4.24322203h18.982421c.265569 0 .501531.1052637.671875.2753907.174975.1743155.279297.4100309.279297.6699218v4.2324224h-8.285156c-.333063 0-.641954.135458-.861328.359374l-.01758.01758c-.0013.000653-.0026.0013-.0039.002-.209568.218314-.333984.518105-.333984.839844v5.175781c0 .335484.136033.640581.357422.861328.221243.220924.526312.357422.859375.357422h8.285156v3.59375c0 .259891-.103398.491874-.277042.663444-.173644.171571-.410409.279962-.674176.279962h-18.98238c-.264264 0-.499787-.104494-.671732-.277624s-.27944-.407694-.27944-.66583v-15.4394534c0-.2581354.108424-.4944437.28125-.6699218.170195-.1693928.40526-.2753907.669922-.2753907zm11.648437 6.1679689h9.03125v5.628906h-9.03125c-.07032 0-.120198-.02283-.160333-.06379-.04013-.04096-.06427-.095-.06427-.160804v-5.175781c0-.06432.02317-.115217.05859-.152344l.0078-.0078c.04085-.04071.09886-.06836.158203-.06836zm2.962891.609375c-.608823 0-1.16581.247792-1.564454.644531-.401803.400628-.65039.952564-.65039 1.560547 0 .611155.246458 1.16531.648437 1.566406.398688.397215.954009.642578 1.566407.642578.612992 0 1.166437-.247104 1.564453-.644531.401889-.40042.65039-.952878.65039-1.564453 0-.607983-.248587-1.159919-.65039-1.560547-.397925-.396747-.951329-.644531-1.564453-.644531zm0 .990234c.341572 0 .643122.136265.864243.356931.221122.220665.35846.522576.35846.85796 0 .340046-.135937.64271-.359375.865234-.218763.218308-.522423.355469-.863281.355469-.340859 0-.644151-.13702-.863282-.355469-.223639-.222952-.361328-.525965-.361328-.865234 0-.334694.139062-.637298.360455-.858007s.522933-.356884.864201-.356884z" fill="#fff" fill-rule="evenodd" transform="translate(-11.293209 1.480917)"/></svg>