<svg height="22" viewBox="0 0 21 22" width="21" xmlns="http://www.w3.org/2000/svg" xmlns:xlink="http://www.w3.org/1999/xlink"><filter id="a"><feColorMatrix in="SourceGraphic" values="0 0 0 0 1.000000 0 0 0 0 1.000000 0 0 0 0 1.000000 0 0 0 1.000000 0"/></filter><g fill="none" fill-rule="evenodd" filter="url(#a)" stroke-linecap="round" stroke-linejoin="round" transform="translate(-749 -2508)"><path d="m12.902 4.832c0 2.009-1.716 3.616-3.761 3.439-1.814-.157-3.143-1.797-3.143-3.617v-1.024c0-1.82 1.33-3.459 3.143-3.617 2.045-.177 3.76 1.43 3.76 3.439v1.38zm-1.636 6.635-1.155 1.379c-.345.41-.978.41-1.323 0l-1.155-1.38c-.48-.573-1.286-.792-1.972-.493-3.078 1.34-5.307 4.263-5.657 7.742-.05.513.349.962.863.962h17.165c.514 0 .914-.45.863-.962-.35-3.479-2.579-6.402-5.657-7.742-.686-.3-1.492-.08-1.972.494z" stroke="#163567" transform="translate(750 2509)"/></g></svg>