<svg height="24" viewBox="0 0 24 24" width="24" xmlns="http://www.w3.org/2000/svg"><path d="m137 299.36792c-15.97252-1.50961-35.9715-7.00282-50.910332-13.98377-15.441485-7.21585-28.174966-16.32842-41.660182-29.81364-22.662234-22.66223-35.9017776-47.85936-42.0721415-80.07051-2.36340288-12.33767-2.36340288-38.66233 0-51 2.1798005-11.37921 7.392433-28.5 8.6771735-28.5.536964 0 14.361365 10.8939 30.720891 24.20866 42.579817 34.65505 44.244591 36.02932 44.244591 36.52392 0 .2458-2.229198 2.94801-4.953774 6.00492-13.781529 15.46253-19.195764 37.628-14.078497 57.63632 5.435761 21.25362 18.467975 39.23915 34.214141 47.21834 11.75296 5.95568 29.64654 6.90422 46.81813 2.48184 7.38836-1.90281 53.86029-21.81289 56.42739-24.17533.55771-.51324-.49607-4.1512-2.64345-9.12606-1.96397-4.54994-15.94641-36.84761-31.0721-71.77261-15.12568-34.925-29.53272-68.225-32.01564-74s-5.6803-13.100331-7.1053-16.278513c-1.42499-3.178183-2.5909-6.370297-2.5909-7.093587 0-1.599543 19.19456-10.811262 27.48038-13.188189 18.96387-5.44011 35.26687 1.884195 45.76466 20.560289 7.70549 13.708469 8.35128 29.25253 1.77066 42.61968-3.91998 7.96261-14.98269 18.55285-24.71379 23.65831l-7.1981 3.77651 4.1981 3.79869c2.30895 2.08927 24.67309 21.48974 49.69809 43.11215s46.13965 39.90646 46.92144 40.63122c3.36797 3.12228-21.87811 29.89567-38.97175 41.32942-17.24677 11.53618-37.52303 19.78208-57.90104 23.54705-8.59072 1.5872-30.86685 2.66818-39.04865 1.89489zm-12.19894-51.37585c-19.80392-3.42081-36.676292-29.73687-32.908874-51.32838 2.644196-15.15419 13.130394-28.34826 28.615644-36.00512 7.50643-3.71164 7.69752-3.89378 5.87547-5.60039-1.03581-.97019-13.8083-12.05545-28.3833-24.63391-20.642123-17.81449-67.521539-58.293359-72.288158-62.418496-2.86853-2.48249 25.537123-32.043374 40.224112-41.859987 25.985665-17.3685197 52.820156-25.51248124 84.064046-25.51248124 41.3847 0 76.22999 14.45565224 105.57051 43.79618024 22.66224 22.662233 35.90178 47.85936 42.07215 80.070514 2.3634 12.33767 2.3634 38.66233 0 51-1.7725 9.25296-7.26464 28.42002-8.52268 29.74334-.54966.57819-39.02149-30.02486-71.54324-56.91026l-3.83084-3.16691 4.37705-5.07414c18.26178-21.17016 21.79938-47.130642 9.90745-72.705393-4.66612-10.034963-7.58017-14.376017-14.2886-21.285687-18.48915-19.043806-44.65366-23.28409-71.63913-11.610013-15.38825 6.65705-45.629647 20.649872-46.504342 21.517756-.534496.530334.221153 3.459433 1.855646 7.192979 1.516525 3.46408 13.460556 31.048328 26.542286 61.298328 13.08174 30.25 29.20503 67.4977 35.82954 82.77266l12.04455 27.77265-9.68517 4.53587c-16.55507 7.75325-27.25489 10.16056-37.38412 8.41089z" fill="#fff" transform="matrix(.05351343 0 0 .05351343 3.972985 3.96611)"/><g fill="none"><circle cx="-248.85461" cy="81.30658" r="108.67883"/><path d="m18.987743 1.1374789h2.416562v19.8033981h-2.416562m-14.4993726 0h-2.4165621v-19.8033981h2.4165621" stroke="#fff" stroke-linecap="round" stroke-linejoin="round" stroke-width=".979487" transform="matrix(1.0831044 0 0 .96233009 -.713541 1.376669)"/></g></svg>