<?xml version="1.0" encoding="UTF-8" standalone="no"?>
<svg
   viewBox="0 0 87 87"
   version="1.1"
   id="svg23"
   sodipodi:docname="kugla.svg"
   inkscape:version="1.1 (c68e22c387, 2021-05-23)"
   xmlns:inkscape="http://www.inkscape.org/namespaces/inkscape"
   xmlns:sodipodi="http://sodipodi.sourceforge.net/DTD/sodipodi-0.dtd"
   xmlns:xlink="http://www.w3.org/1999/xlink"
   xmlns="http://www.w3.org/2000/svg"
   xmlns:svg="http://www.w3.org/2000/svg">
  <sodipodi:namedview
     id="namedview25"
     pagecolor="#ffffff"
     bordercolor="#666666"
     borderopacity="1.0"
     inkscape:pageshadow="2"
     inkscape:pageopacity="0.0"
     inkscape:pagecheckerboard="0"
     showgrid="false"
     inkscape:zoom="8.6551724"
     inkscape:cx="43.5"
     inkscape:cy="43.5"
     inkscape:window-width="1550"
     inkscape:window-height="1004"
     inkscape:window-x="185"
     inkscape:window-y="39"
     inkscape:window-maximized="1"
     inkscape:current-layer="svg23" />
  <defs
     id="defs6">
    <path
       id="47vxh62m4b"
       d="M0 0L87 0 87 87 0 87z" />
    <mask
       id="achiz95g4c"
       fill="#ffffff">
      <use
         xlink:href="#47vxh62m4b"
         id="use8"
         x="0"
         y="0"
         width="100%"
         height="100%" />
    </mask>
  </defs>
  <path
     fill="#30383b"
     d="M 12.737,12.735 C 20.62,4.869 31.486,0 43.492,0 55.514,0 66.395,4.869 74.262,12.735 82.147,20.616 87,31.48 87,43.485 87,55.52 82.146,66.368 74.263,74.25 66.395,82.13 55.514,87 43.493,87 31.486,87 20.62,82.131 12.737,74.25 4.87,66.368 0,55.52 0,43.485 0,31.48 4.87,20.616 12.737,12.735 Z m 6.894,29.654 H 2.207 c 0.152,-6.07 1.643,-11.837 4.154,-16.995 5.037,-1.172 10.546,-2.115 16.42,-2.784 -1.917,5.69 -3.059,12.324 -3.15,19.78 z m 3.15,21.986 C 16.907,63.721 11.398,62.778 6.361,61.606 3.851,56.448 2.359,50.682 2.207,44.596 H 19.63 c 0.091,7.455 1.233,14.104 3.15,19.78 z M 37.466,84.368 C 28.472,83.044 20.422,78.829 14.289,72.698 11.749,70.157 9.542,67.281 7.715,64.147 c 4.885,1.05 10.196,1.917 15.827,2.51 l 0.076,0.016 c 0.67,1.734 1.446,3.377 2.267,4.914 3.06,5.706 7.061,10.012 11.581,12.78 z M 26.068,66.916 c 0.548,1.278 1.126,2.495 1.75,3.652 3.713,6.907 8.857,11.609 14.579,13.8 V 67.692 c -5.616,-0.03 -11.094,-0.29 -16.329,-0.776 z m -4.246,-22.32 c 0.107,7.653 1.324,14.363 3.363,20.038 5.479,0.532 11.246,0.837 17.212,0.867 V 44.595 H 21.822 Z m 3.363,-22.23 c 5.479,-0.532 11.246,-0.852 17.212,-0.882 V 42.389 H 21.822 c 0.107,-7.638 1.324,-14.348 3.363,-20.023 z m 0.883,-2.297 c 0.548,-1.278 1.126,-2.48 1.75,-3.637 C 31.531,9.525 36.675,4.808 42.397,2.617 v 16.691 c -5.616,0.03 -11.094,0.29 -16.329,0.76 z m 34.864,0 C 55.697,19.597 50.219,19.339 44.603,19.308 V 2.617 c 5.722,2.191 10.881,6.908 14.579,13.815 0.624,1.157 1.202,2.359 1.75,3.637 z m 4.246,22.32 H 44.603 V 21.484 c 5.966,0.03 11.748,0.35 17.212,0.882 2.039,5.675 3.256,12.385 3.363,20.023 z m -3.363,22.245 c -5.464,0.532 -11.246,0.837 -17.212,0.867 V 44.595 h 20.575 c -0.107,7.654 -1.324,14.364 -3.363,20.039 z M 44.603,84.368 c 5.722,-2.191 10.881,-6.893 14.579,-13.8 0.624,-1.157 1.202,-2.374 1.75,-3.652 -5.235,0.487 -10.713,0.746 -16.329,0.776 z m 18.794,-17.695 0.061,-0.016 c 5.63,-0.593 10.942,-1.46 15.827,-2.51 -1.811,3.134 -4.033,6.01 -6.574,8.55 -6.133,6.132 -14.183,10.347 -23.177,11.67 4.52,-2.768 8.522,-7.074 11.58,-12.78 0.822,-1.537 1.598,-3.18 2.283,-4.914 z m 3.987,-22.078 c -0.106,7.456 -1.248,14.105 -3.165,19.78 5.874,-0.654 11.383,-1.597 16.42,-2.769 2.51,-5.158 4.002,-10.924 4.154,-17.01 H 67.384 Z M 64.22,22.61 c 5.874,0.67 11.383,1.612 16.42,2.784 2.51,5.158 4.002,10.924 4.154,16.995 H 67.384 C 67.278,34.934 66.136,28.3 64.219,22.609 Z M 49.534,2.632 c 4.52,2.77 8.522,7.075 11.58,12.766 0.822,1.536 1.598,3.195 2.283,4.93 h 0.061 c 5.63,0.608 10.942,1.46 15.827,2.51 C 77.474,19.704 75.252,16.843 72.711,14.302 66.578,8.155 58.528,3.956 49.534,2.632 Z m -12.068,0 c -8.994,1.324 -17.044,5.523 -23.177,11.67 -2.54,2.541 -4.747,5.402 -6.574,8.536 4.885,-1.05 10.196,-1.902 15.827,-2.51 h 0.076 c 0.67,-1.735 1.446,-3.394 2.267,-4.93 3.06,-5.69 7.061,-9.997 11.581,-12.766 z"
     mask="url(#achiz95g4c)"
     id="path11"
     style="fill-rule:evenodd;fill:#8b0430;fill-opacity:1" />
  <path
     stroke="#ffffff"
     stroke-linecap="round"
     stroke-linejoin="round"
     stroke-width="2"
     d="m 45,45 h 19 c 0.009,3.116 -0.279,6.283 -0.864,9.5 -0.585,3.217 -1.448,6.384 -2.59,9.5 H 45 Z"
     id="path15"
     style="fill:none;fill-rule:evenodd" />
</svg>
