<svg enable-background="new 0 0 841.89 595.28" height="64" viewBox="0 0 60.400546 63.999998" width="60.400547" xmlns="http://www.w3.org/2000/svg" xmlns:xlink="http://www.w3.org/1999/xlink"><clipPath id="a"><path d="m240.01 262.133 21.023 10.499c1.42.71 1.996 2.437 1.287 3.858-.277.557-.73 1.009-1.287 1.288l-21.023 10.5c-1.42.709-3.148.133-3.857-1.289-.199-.398-.303-.839-.303-1.284v-20.999c0-1.589 1.287-2.876 2.875-2.876.447-.001.886.103 1.285.303z" height="100%" width="100%"/></clipPath><clipPath id="b"><path d="m-264.92001-84.546997h1081.053v763.926997h-1081.053z" height="100%" width="100%"/></clipPath><clipPath id="c"><path d="m240.01 307.839 21.023 10.5c1.42.71 1.996 2.438 1.287 3.858-.277.558-.73 1.009-1.287 1.287l-21.023 10.5c-1.42.709-3.148.133-3.857-1.288-.199-.398-.303-.839-.303-1.285v-20.999c0-1.587 1.287-2.875 2.875-2.875.447 0 .886.103 1.285.302z" height="100%" width="100%"/></clipPath><clipPath id="d"><path d="m-264.92001-84.546997h1081.053v763.926997h-1081.053z" height="100%" width="100%"/></clipPath><clipPath id="e"><path d="m266.184 287.816v20.999c0 1.588-1.287 2.875-2.875 2.875-.447 0-.887-.103-1.285-.302l-21.024-10.5c-1.42-.709-1.996-2.437-1.287-3.857.279-.558.73-1.009 1.287-1.288l21.023-10.5c1.422-.71 3.148-.133 3.857 1.288.2.398.304.839.304 1.285z" height="100%" width="100%"/></clipPath><clipPath id="f"><path d="m-264.92001-84.546997h1081.053v763.926997h-1081.053z" height="100%" width="100%"/></clipPath><clipPath id="g"><path d="m202.953 272.632 21.023-10.499c1.42-.71 3.146-.133 3.857 1.288.199.398.303.839.303 1.285v20.999c0 1.587-1.287 2.875-2.875 2.875-.447 0-.887-.103-1.285-.302l-21.023-10.5c-1.42-.71-1.998-2.438-1.287-3.858.277-.558.73-1.009 1.287-1.288z" height="100%" width="100%"/></clipPath><clipPath id="h"><path d="m-264.92001-84.546997h1081.053v763.926997h-1081.053z" height="100%" width="100%"/></clipPath><clipPath id="i"><path d="m202.953 318.339 21.023-10.5c1.42-.709 3.146-.133 3.857 1.289.199.399.303.839.303 1.284v20.999c0 1.589-1.287 2.876-2.875 2.876-.447 0-.887-.104-1.285-.303l-21.023-10.5c-1.42-.71-1.998-2.437-1.287-3.857.277-.558.73-1.01 1.287-1.288z" height="100%" width="100%"/></clipPath><clipPath id="j"><path d="m-264.92001-84.546997h1081.053v763.926997h-1081.053z" height="100%" width="100%"/></clipPath><clipPath id="k"><path d="m201.963 285.243 21.021 10.5c1.422.709 1.998 2.436 1.289 3.858-.279.557-.73 1.009-1.289 1.287l-21.021 10.5c-1.422.71-3.148.133-3.857-1.289-.199-.398-.305-.839-.305-1.284v-20.999c0-1.589 1.289-2.876 2.877-2.876.445-.001.886.103 1.285.303z" height="100%" width="100%"/></clipPath><clipPath id="l"><path d="m-264.92001-84.546997h1081.053v763.926997h-1081.053z" height="100%" width="100%"/></clipPath><g stroke-width="1.13216" transform="matrix(.22797517 0 0 .22797517 -34.173626 .000006)"><g clip-path="url(#a)" transform="matrix(3.8744065 0 0 3.8744065 -616.46083 -1014.4328)"><path clip-path="url(#b)" d="m229.42999 255.41h39.613v39.59h-39.613z" fill="#06c299" stroke-width=".316101"/></g><g clip-path="url(#c)" transform="matrix(3.8744065 0 0 3.8744065 -616.46083 -1014.4328)"><path clip-path="url(#d)" d="m229.42999 301.117h39.613v39.59h-39.613z" fill="#ff6161" stroke-width=".316101"/></g><g clip-path="url(#e)" transform="matrix(3.8744065 0 0 3.8744065 -616.46083 -1014.4328)"><path clip-path="url(#f)" d="m232.99001 278.51999h39.613v39.589h-39.613z" fill="#fbb014" stroke-width=".316101"/></g><g clip-path="url(#g)" transform="matrix(3.8744065 0 0 3.8744065 -616.46083 -1014.4328)"><path clip-path="url(#h)" d="m194.94099 255.41h39.615v39.589h-39.615z" fill="#4a8afb" stroke-width=".316101"/></g><g clip-path="url(#i)" transform="matrix(3.8744065 0 0 3.8744065 -616.46083 -1014.4328)"><path clip-path="url(#j)" d="m194.94099 301.116h39.615v39.591h-39.615z" fill="#06c299" stroke-width=".316101"/></g><g clip-path="url(#k)" transform="matrix(3.8744065 0 0 3.8744065 -616.46083 -1014.4328)"><path clip-path="url(#l)" d="m191.383 278.51999h39.613v39.59h-39.613z" fill="#fbb014" stroke-width=".316101"/></g></g></svg>