<svg enable-background="new 0 0 841.89 595.28" height="445.76181" viewBox="0 0 564.74486 445.76179" width="564.74487" xmlns="http://www.w3.org/2000/svg" xmlns:xlink="http://www.w3.org/1999/xlink"><defs><clipPath id="a"><path d="m240.01 262.133 21.023 10.499c1.42.71 1.996 2.437 1.287 3.858-.277.557-.73 1.009-1.287 1.288l-21.023 10.5c-1.42.709-3.148.133-3.857-1.289-.199-.398-.303-.839-.303-1.284v-20.999c0-1.589 1.287-2.876 2.875-2.876.447-.001.886.103 1.285.303z" height="100%" width="100%"/></clipPath><clipPath id="b"><path d="m-264.92001-84.546997h1081.053v763.927h-1081.053z" height="100%" width="100%"/></clipPath><clipPath id="c"><path d="m240.01 307.839 21.023 10.5c1.42.71 1.996 2.438 1.287 3.858-.277.558-.73 1.009-1.287 1.287l-21.023 10.5c-1.42.709-3.148.133-3.857-1.288-.199-.398-.303-.839-.303-1.285v-20.999c0-1.587 1.287-2.875 2.875-2.875.447 0 .886.103 1.285.302z" height="100%" width="100%"/></clipPath><clipPath id="d"><path d="m-264.92001-84.546997h1081.053v763.927h-1081.053z" height="100%" width="100%"/></clipPath><clipPath id="e"><path d="m266.184 287.816v20.999c0 1.588-1.287 2.875-2.875 2.875-.447 0-.887-.103-1.285-.302l-21.024-10.5c-1.42-.709-1.996-2.437-1.287-3.857.279-.558.73-1.009 1.287-1.288l21.023-10.5c1.422-.71 3.148-.133 3.857 1.288.2.398.304.839.304 1.285z" height="100%" width="100%"/></clipPath><clipPath id="f"><path d="m-264.92001-84.546997h1081.053v763.927h-1081.053z" height="100%" width="100%"/></clipPath><clipPath id="g"><path d="m202.953 272.632 21.023-10.499c1.42-.71 3.146-.133 3.857 1.288.199.398.303.839.303 1.285v20.999c0 1.587-1.287 2.875-2.875 2.875-.447 0-.887-.103-1.285-.302l-21.023-10.5c-1.42-.71-1.998-2.438-1.287-3.858.277-.558.73-1.009 1.287-1.288z" height="100%" width="100%"/></clipPath><clipPath id="h"><path d="m-264.92001-84.546997h1081.053v763.927h-1081.053z" height="100%" width="100%"/></clipPath><clipPath id="i"><path d="m202.953 318.339 21.023-10.5c1.42-.709 3.146-.133 3.857 1.289.199.399.303.839.303 1.284v20.999c0 1.589-1.287 2.876-2.875 2.876-.447 0-.887-.104-1.285-.303l-21.023-10.5c-1.42-.71-1.998-2.437-1.287-3.857.277-.558.73-1.01 1.287-1.288z" height="100%" width="100%"/></clipPath><clipPath id="j"><path d="m-264.92001-84.546997h1081.053v763.927h-1081.053z" height="100%" width="100%"/></clipPath><clipPath id="k"><path d="m201.963 285.243 21.021 10.5c1.422.709 1.998 2.436 1.289 3.858-.279.557-.73 1.009-1.289 1.287l-21.021 10.5c-1.422.71-3.148.133-3.857-1.289-.199-.398-.305-.839-.305-1.284v-20.999c0-1.589 1.289-2.876 2.877-2.876.445-.001.886.103 1.285.303z" height="100%" width="100%"/></clipPath><clipPath id="l"><path d="m-264.92001-84.546997h1081.053v763.927h-1081.053z" height="100%" width="100%"/></clipPath><clipPath id="m"><use height="100%" width="100%" xlink:href="#q"/></clipPath><clipPath id="n"><use height="100%" width="100%" xlink:href="#r"/></clipPath><clipPath id="o"><path d="m644.088 288.182v9.365c0 1.418-1.148 2.567-2.566 2.567h-10.488v32.201c0 1.418-1.148 2.567-2.568 2.567h-10.129c-1.418 0-2.568-1.149-2.568-2.567v-32.201h-10.885c-1.418 0-2.568-1.149-2.568-2.567v-9.365c0-1.418 1.15-2.568 2.568-2.568h36.639c1.416 0 2.565 1.15 2.565 2.568zm-50.006-.034v44.167c0 1.418-1.15 2.567-2.568 2.567h-11.068c-1.418 0-2.568-1.149-2.568-2.567v-44.167c0-1.418 1.15-2.568 2.568-2.568h11.068c1.418 0 2.568 1.15 2.568 2.568z" height="100%" width="100%"/></clipPath><clipPath id="p"><path d="m-264.92001-84.546997h1081.053v763.927h-1081.053z" height="100%" width="100%"/></clipPath><path id="q" d="m531.102 287.521 10.514 32.425 10.043-32.75c.264-.862 1.062-1.452 1.965-1.452h9.379c1.133 0 2.053.92 2.053 2.055 0 .225-.037.448-.109.66l-15.023 44.28c-.354 1.042-1.332 1.742-2.432 1.742h-11.326c-1.107 0-2.092-.712-2.439-1.765l-10.258-31.179-10.162 31.171c-.344 1.057-1.328 1.772-2.439 1.772h-11.219c-1.102 0-2.08-.7-2.434-1.742l-15.023-44.28c-.365-1.074.211-2.241 1.285-2.605.213-.071.436-.109.66-.109h9.631c.902 0 1.699.589 1.963 1.453l9.99 32.597 10.369-32.268c.342-1.062 1.33-1.783 2.445-1.783h10.127c1.109.002 2.096.719 2.44 1.778zm-80.436 9.138c-7.412 0-12.957 5.533-12.957 13.429s5.545 13.43 12.957 13.43c7.41 0 13.008-5.533 13.008-13.43 0-7.896-5.598-13.429-13.008-13.429zm0-12.222c15.225 0 26.469 10.964 26.469 25.651s-11.244 25.651-26.469 25.651c-15.176 0-26.369-10.965-26.369-25.651s11.193-25.651 26.369-25.651zm-55.762 0c11.092 0 19.008 7.696 19.008 19.011v28.466c0 1.418-1.15 2.567-2.568 2.567h-8.023c-1.418 0-2.566-1.149-2.566-2.567v-24.24c0-7.041-3.529-10.915-9.529-10.915-5.646 0-10.336 3.672-10.336 11.015v24.14c0 1.418-1.148 2.567-2.566 2.567h-8.023c-1.418 0-2.566-1.149-2.566-2.567v-43.602c0-1.418 1.148-2.568 2.566-2.568h7.67c1.418 0 2.568 1.15 2.568 2.568v3.166c3.477-5.179 8.82-7.041 14.365-7.041zm-69.22-22.328v40.989h4.639l13.146-16.575c.391-.491.982-.778 1.609-.778h11.836c.85 0 1.539.689 1.539 1.541 0 .362-.127.713-.361.99l-17.131 20.404 17.553 23.335c.512.679.377 1.646-.303 2.157-.27.201-.594.31-.928.31h-12.039c-.662 0-1.287-.32-1.672-.861l-13.453-18.854h-4.436v17.148c0 1.418-1.15 2.567-2.568 2.567h-8.023c-1.418 0-2.566-1.149-2.566-2.567v-69.805c0-1.418 1.148-2.568 2.566-2.568h8.023c1.418-.001 2.569 1.149 2.569 2.567z"/><path id="r" d="m-264.92001-84.546997h1081.053v763.927h-1081.053z"/></defs><g stroke-width=".258104"><g clip-path="url(#a)" transform="matrix(3.8744065 0 0 3.8744065 -616.46083 -1014.432775)"><path clip-path="url(#b)" d="m229.42999 255.41h39.612999v39.59h-39.612999z" fill="#06c299" stroke-width=".072063"/></g><g clip-path="url(#c)" transform="matrix(3.8744065 0 0 3.8744065 -616.46083 -1014.432775)"><path clip-path="url(#d)" d="m229.42999 301.117h39.612999v39.59h-39.612999z" fill="#ff6161" stroke-width=".072063"/></g><g clip-path="url(#e)" transform="matrix(3.8744065 0 0 3.8744065 -616.46083 -1014.432775)"><path clip-path="url(#f)" d="m232.99001 278.51999h39.612999v39.589001h-39.612999z" fill="#fbb014" stroke-width=".072063"/></g><g clip-path="url(#g)" transform="matrix(3.8744065 0 0 3.8744065 -616.46083 -1014.432775)"><path clip-path="url(#h)" d="m194.94099 255.41h39.615002v39.589001h-39.615002z" fill="#4a8afb" stroke-width=".072063"/></g><g clip-path="url(#i)" transform="matrix(3.8744065 0 0 3.8744065 -616.46083 -1014.432775)"><path clip-path="url(#j)" d="m194.94099 301.116h39.615002v39.591h-39.615002z" fill="#06c299" stroke-width=".072063"/></g><g clip-path="url(#k)" transform="matrix(3.8744065 0 0 3.8744065 -616.46083 -1014.432775)"><path clip-path="url(#l)" d="m191.383 278.51999h39.612999v39.59h-39.612999z" fill="#fbb014" stroke-width=".072063"/></g></g><g stroke-width=".5871" transform="matrix(1.7032858 0 0 1.7032858 -532.32110144996 -126.09767036497)"><g fill="#fff" stroke-width=".347217"><use height="100%" width="100%" xlink:href="#q"/><g clip-path="url(#m)"><use height="100%" width="100%" xlink:href="#r"/><path clip-path="url(#n)" d="m306.10501 253.12199h265.36899v89.038002h-265.36899z"/></g></g><g clip-path="url(#o)" fill="#fdfdfe" stroke-width=".5871"><path clip-path="url(#p)" d="m571.45697 279.16101h79.051003v62.141998h-79.051003z" fill="#fdfdfe" opacity=".2691" stroke-width=".347217"/></g></g></svg>