<svg height="64" viewBox="0 0 64 64" width="64" xmlns="http://www.w3.org/2000/svg"><g fill="none" stroke="#cc1e46" stroke-linejoin="round"><path d="m19.907061 18.009583 24.349732-7.955283c.870377-.2843602 1.799989.18758 2.08427 1.057985l2.254368 6.86726m-35.240145-.000183 13.590367-9.3159076c.756509-.5158626 1.780838-.3221299 2.2967.4343801l3.144193 4.6109405m15.7706 15.973906h6.63415c.100507.000004.181412.08091.181413.181413v13.93138c-.000003.100507-.08091.181412-.181412.181413h-4.923444m-11.055351 0h-4.820688c-.100508-.000003-.181414-.08091-.181413-.181413l-.000001-13.93138c.000003-.100507.08091-.181413.181416-.181413h6.439336m13.270651 14.699096v7.55272c.000002 2.0432-1.644886 3.688085-3.688083 3.688085h-37.298346c-2.043197 0-3.6880823-1.644885-3.6880823-3.688084l-.0000003-30.210882c0-2.043197 1.6448866-3.688083 3.6880826-3.688083h37.298346c2.043197 0 3.688085 1.644886 3.688085 3.688083l-.000002 7.55272" stroke-width=".749861" transform="matrix(1.3336883 0 0 1.333471 -10.678026 -10.67106)"/><path d="m-51.374337 42.845923v-16.957317c0-4.658026 3.749963-8.407989 8.40799-8.407989s8.40799 3.749963 8.40799 8.407989v16.957317m-26.844253.812719v-17.093176c0-10.213688 8.222572-18.43626 18.436262-18.43626 10.213691 0 18.436263 8.222572 18.436263 18.43626v17.093176m2.35178-.124217c1.746691 0 3.15287 1.406179 3.15287 3.152868v34.712179c0 1.746691-1.406179 3.15287-3.15287 3.15287h-41.576072c-1.746688 0-3.15287-1.406179-3.15287-3.15287v-34.712185c0-1.746689 1.406182-3.152868 3.15287-3.152868z" stroke-width="3.24338" transform="matrix(.3060504 0 0 .31060687 61.55676 23.202381)"/></g></svg>