<?xml version="1.0" encoding="UTF-8" standalone="no"?>
<svg
   width="31.000002"
   height="27.5"
   viewBox="0 0 31.000002 27.5"
   version="1.1"
   id="svg17"
   sodipodi:docname="menu-close.svg"
   inkscape:version="1.1 (c68e22c387, 2021-05-23)"
   xmlns:inkscape="http://www.inkscape.org/namespaces/inkscape"
   xmlns:sodipodi="http://sodipodi.sourceforge.net/DTD/sodipodi-0.dtd"
   xmlns="http://www.w3.org/2000/svg"
   xmlns:svg="http://www.w3.org/2000/svg">
  <sodipodi:namedview
     id="namedview19"
     pagecolor="#ffffff"
     bordercolor="#666666"
     borderopacity="1.0"
     inkscape:pageshadow="2"
     inkscape:pageopacity="0.0"
     inkscape:pagecheckerboard="0"
     showgrid="false"
     fit-margin-top="0"
     fit-margin-left="0"
     fit-margin-right="0"
     fit-margin-bottom="0"
     inkscape:zoom="13.446429"
     inkscape:cx="3.383798"
     inkscape:cy="15.357237"
     inkscape:window-width="1550"
     inkscape:window-height="1004"
     inkscape:window-x="185"
     inkscape:window-y="39"
     inkscape:window-maximized="1"
     inkscape:current-layer="svg17" />
  <path
     id="path7"
     style="color:#000000;fill:#8b0430;fill-rule:evenodd;stroke-linecap:round;-inkscape-stroke:none;"
     d="M 1.2871094 0.001953125 A 1 1 0 0 0 0.59765625 0.3359375 A 1 1 0 0 0 0.6796875 1.7460938 L 13.996094 13.595703 L 0.3359375 25.753906 A -1 1 0 0 0 0.25390625 27.164062 A -1 1 0 0 0 1.6640625 27.246094 L 15.5 14.933594 L 29.335938 27.246094 A 1 1 0 0 0 30.746094 27.164062 A 1 1 0 0 0 30.664062 25.753906 L 17.003906 13.595703 L 30.320312 1.7460938 A -1 1 0 0 0 30.402344 0.3359375 A -1 1 0 0 0 29.712891 0.001953125 A -1 1 0 0 0 28.990234 0.25390625 L 15.5 12.259766 L 2.0097656 0.25390625 A 1 1 0 0 0 1.2871094 0.001953125 z " />
</svg>
