<svg height="64" viewBox="0 0 16.933333 16.933333" width="64" xmlns="http://www.w3.org/2000/svg"><g fill="none" stroke="#cc1e46" stroke-linecap="round" stroke-linejoin="round" transform="translate(.100751 .093513)"><path d="m.85525371.64660179 6.17751859 4.66935561-2.3077931 2.0440318-3.4187893 1.0000567-1.13729883 3.5430311 1.05890843 3.614784 3.7063054-1.019718 2.2094841-1.078576.3138155-.215638h1.8106422l.3138127.215638 2.2158706 1.078576 3.706435 1.019718 1.065417-3.614784-1.150447-3.5430311-3.418663-1.0000567-2.3480076-2.0952279 6.2177326-4.61815951-5.301307 1.98070691h-4.4058186zm5.63465689 9.19086661.5359641 1.1373036-1.8433208-.542478zm3.7586544 0 1.307354.5948256-1.8499601.542478z" stroke-width=".264583"/><path d="m7.1435289 13.419603-2.2094846 1.078575.7190481.588314 1.4577526 1.013205h2.5036408l1.4641352-1.013205.719046-.588314-2.2158651-1.078575.1764408 1.444611-.1634197-.143759h-2.464318l-.1503957.143759z" stroke-width=".264583"/><path d="m138.1 253 2.3-2.2h37.7l2.5 2.2-2.7-22.1-4.8-3.3h-27.7l-4.8 3.3z" stroke-width="4.0476" transform="matrix(.06536785 0 0 .06536817 -2.04714 -1.673907)"/><g stroke-width=".264583"><path d="m.85525371.64660179-.82373709 2.47747941.55562668 2.6670719-.35288438.261473.52294301.3987205-.39884609.3138178.52294303.4771112-.3268395.2352996.75173053.8824707 3.4187893-1.0000567 2.3077931-2.0440318z"/><path d="m15.870197.64660179-6.2177326 4.61815951 2.3480076 2.0952279 3.418663 1.0000567.758235-.8824707-.326834-.2352996.522941-.4771112-.405231-.3138178.522947-.3987205-.346502-.261473.555624-2.6670719z"/></g></g></svg>