<svg height="86" viewBox="0 0 86 86" width="86" xmlns="http://www.w3.org/2000/svg" xmlns:xlink="http://www.w3.org/1999/xlink"><filter id="a"><feColorMatrix in="SourceGraphic" values="0 0 0 0 1.000000 0 0 0 0 1.000000 0 0 0 0 1.000000 0 0 0 1.000000 0"/></filter><g fill="none" fill-rule="evenodd" filter="url(#a)" stroke-linecap="round" stroke-linejoin="round" transform="translate(-433 -2472)"><g stroke="#163567" stroke-width="2"><path d="m54 28.085c0 7.92-7.18 14.18-15.422 12.696-5.887-1.055-10.578-7.389-10.578-13.33v-3.902c0-5.942 4.691-12.275 10.578-13.331 8.242-1.48 15.422 4.776 15.422 12.7z" transform="translate(434 2473)"/><path d="m84 42c0 23.199-18.805 42-42 42s-42-18.801-42-42 18.805-42 42-42 42 18.801 42 42z" transform="translate(434 2473)"/><path d="m13 73c4.653-11.145 15.668-19 28.5-19s23.847 7.855 28.5 19" transform="translate(434 2473)"/></g></g></svg>