<svg height="25" viewBox="0 0 25 25" width="25" xmlns="http://www.w3.org/2000/svg"><g fill="none" stroke="#fff" stroke-linecap="round" stroke-linejoin="round"><path d="m16 8.7c0 2.146-1.933 3.842-4.152 3.44-1.585-.286-2.848-2.002-2.848-3.612v-1.057c0-1.61 1.263-3.326 2.848-3.612 2.219-.399 4.152 1.294 4.152 3.441z"/><path d="m24 12.5c0 6.352-5.149 11.5-11.5 11.5s-11.5-5.148-11.5-11.5 5.149-11.5 11.5-11.5 11.5 5.148 11.5 11.5z"/><path d="m4.66 20.91c1.28-2.88 4.31-4.91 7.84-4.91s6.56 2.03 7.84 4.91"/></g></svg>