<svg height="42" viewBox="0 0 42 42" width="42" xmlns="http://www.w3.org/2000/svg"><path d="m1175 384c-11.597 0-21 9.403-21 21s9.403 21 21 21 21-9.403 21-21-9.403-21-21-21m10.173 15.352c.015.219.015.447.015.67 0 6.836-5.282 14.71-14.934 14.71-2.975 0-5.734-.853-8.059-2.32.425.047.832.066 1.266.066 2.457 0 4.715-.82 6.515-2.207-2.305-.047-4.242-1.537-4.904-3.585.808.116 1.536.116 2.367-.094-1.187-.237-2.254-.873-3.02-1.798-.765-.925-1.182-2.083-1.18-3.277v-.065c.695.387 1.512.624 2.367.657-.719-.472-1.308-1.112-1.716-1.863-.408-.75-.622-1.588-.622-2.44 0-.964.255-1.844.713-2.607 1.317 1.599 2.962 2.906 4.825 3.837 1.864.932 3.906 1.466 5.993 1.568-.741-3.515 1.923-6.36 5.126-6.36 1.512 0 2.872.624 3.831 1.63 1.186-.219 2.32-.657 3.33-1.243-.391 1.196-1.213 2.207-2.305 2.844 1.059-.111 2.079-.4 3.024-.805-.714 1.034-1.606 1.95-2.632 2.682" fill="#fff" fill-rule="evenodd" transform="translate(-1154 -384)"/></svg>