<svg height="64" viewBox="0 0 64 64" width="64" xmlns="http://www.w3.org/2000/svg"><path d="m19.907061 18.009583 24.349732-7.955283c.870377-.2843602 1.799989.18758 2.08427 1.057985l2.254368 6.86726m-35.240145-.000183 13.590367-9.3159076c.756509-.5158626 1.780838-.3221299 2.2967.4343801l3.144193 4.6109405m12.538643 23.121009a3.422273 3.422273 0 0 1 -3.422273 3.422272 3.422273 3.422273 0 0 1 -3.422273-3.422272 3.422273 3.422273 0 0 1 3.422273-3.422274 3.422273 3.422273 0 0 1 3.422273 3.422274zm-10.933373-7.147103h20.79948c.100507.000004.181412.08091.181413.181413v13.93138c-.000003.100507-.08091.181412-.181412.181413h-20.799483c-.100508-.000003-.181414-.08091-.181413-.181413l-.000001-13.93138c.000003-.100507.08091-.181413.181416-.181413zm19.709987 14.699096v7.55272c.000002 2.0432-1.644886 3.688085-3.688083 3.688085h-37.298346c-2.043197 0-3.6880823-1.644885-3.6880823-3.688084l-.0000003-30.210882c0-2.043197 1.6448866-3.688083 3.6880826-3.688083h37.298346c2.043197 0 3.688085 1.644886 3.688085 3.688083l-.000002 7.55272" fill="none" stroke="#cc1e46" stroke-linejoin="round"/></svg>